<?xml version="1.0" encoding="utf-8"?>
<!-- Generator: Adobe Illustrator 16.0.3, SVG Export Plug-In . SVG Version: 6.00 Build 0)  -->
<!DOCTYPE svg PUBLIC "-//W3C//DTD SVG 1.1//EN" "http://www.w3.org/Graphics/SVG/1.1/DTD/svg11.dtd">
<svg version="1.1" id="Capa_1" xmlns="http://www.w3.org/2000/svg" xmlns:xlink="http://www.w3.org/1999/xlink" x="0px" y="0px"
	 width="33.333px" height="33.333px" viewBox="16.833 16.333 33.333 33.333" enable-background="new 16.833 16.333 33.333 33.333"
	 xml:space="preserve">
<g transform="translate(13.333 13.333)">
	<g>
		<path id="d01no60e5a_1_" fill="#008BCF" d="M20.167,3c9.204,0,16.666,7.462,16.666,16.667c0,9.204-7.462,16.666-16.666,16.666
			c-9.205,0-16.667-7.462-16.667-16.666C3.5,10.462,10.962,3,20.167,3z M18.39,11.76c-0.228-1.028-1.229-1.67-2.245-1.451
			l-3.041,0.425c-0.34,0.067-0.591,0.293-0.685,0.595c-0.363,1.241-0.545,2.518-0.545,3.801c0,7.205,5.742,13.235,13.1,13.895
			c0.373,0.037,0.746-0.123,0.979-0.426l1.618-2.08c0.311-0.375,0.457-0.875,0.397-1.373s-0.319-0.949-0.72-1.25l-0.827-0.658
			l-1.407-1.051c-0.515-0.39-1.16-0.576-1.807-0.518c-0.344,0.025-0.626,0.175-1.29,0.602c-0.448,0.287-0.666,0.41-0.769,0.436
			c-2.019-1.152-3.549-3-4.304-5.198c0.121-0.082,0.314-0.194,0.599-0.35c0.718-0.391,0.951-0.542,1.139-0.835
			c0.35-0.54,0.477-1.198,0.348-1.832l-0.338-1.697L18.39,11.76z M16.327,11.333c0.493-0.104,0.941,0.184,1.044,0.64l0.2,1.023
			l0.34,1.7c0.072,0.367,0,0.748-0.203,1.062c-0.048,0.074-0.26,0.212-0.761,0.485c-0.705,0.383-0.946,0.54-1.135,0.833
			c-0.084,0.13-0.106,0.29-0.06,0.437c0.827,2.69,2.688,4.941,5.175,6.26c0.219,0.115,0.463,0.061,0.616-0.096
			c0.222-0.078,0.478-0.234,0.974-0.553c0.446-0.287,0.68-0.41,0.777-0.417c0.395-0.036,0.783,0.076,1.094,0.312l1.399,1.045
			l0.825,0.656c0.185,0.139,0.297,0.334,0.322,0.549s-0.037,0.431-0.176,0.598l-1.63,2.096c-0.014,0.018-0.035,0.027-0.056,0.025
			c-6.836-0.613-12.157-6.2-12.157-12.857c0-1.144,0.157-2.283,0.466-3.384L16.327,11.333z"/>
	</g>
	<defs>
		<filter id="Adobe_OpacityMaskFilter" filterUnits="userSpaceOnUse" x="-9.463" y="-9.963" width="60.185" height="60.185">
			<feColorMatrix  type="matrix" values="1 0 0 0 0  0 1 0 0 0  0 0 1 0 0  0 0 0 1 0"/>
		</filter>
	</defs>
	<mask maskUnits="userSpaceOnUse" x="-9.463" y="-9.963" width="60.185" height="60.185" id="u92tmp83sb">
		<g filter="url(#Adobe_OpacityMaskFilter)">
			<path id="d01no60e5a" fill="#FFFFFF" d="M20.167,3c9.204,0,16.666,7.462,16.666,16.667c0,9.204-7.462,16.666-16.666,16.666
				c-9.205,0-16.667-7.462-16.667-16.666C3.5,10.462,10.962,3,20.167,3z M18.39,11.76c-0.228-1.028-1.229-1.67-2.245-1.451
				l-3.041,0.425c-0.34,0.067-0.591,0.293-0.685,0.595c-0.363,1.241-0.545,2.518-0.545,3.801c0,7.205,5.742,13.235,13.1,13.895
				c0.373,0.037,0.746-0.123,0.979-0.426l1.618-2.08c0.311-0.375,0.457-0.875,0.397-1.373s-0.319-0.949-0.72-1.25l-0.827-0.658
				l-1.407-1.051c-0.515-0.39-1.16-0.576-1.807-0.518c-0.344,0.025-0.626,0.175-1.29,0.602c-0.448,0.287-0.666,0.41-0.769,0.436
				c-2.019-1.152-3.549-3-4.304-5.198c0.121-0.082,0.314-0.194,0.599-0.35c0.718-0.391,0.951-0.542,1.139-0.835
				c0.35-0.54,0.477-1.198,0.348-1.832l-0.338-1.697L18.39,11.76z M16.327,11.333c0.493-0.104,0.941,0.184,1.044,0.64l0.2,1.023
				l0.34,1.7c0.072,0.367,0,0.748-0.203,1.062c-0.048,0.074-0.26,0.212-0.761,0.485c-0.705,0.383-0.946,0.54-1.135,0.833
				c-0.084,0.13-0.106,0.29-0.06,0.437c0.827,2.69,2.688,4.941,5.175,6.26c0.219,0.115,0.463,0.061,0.616-0.096
				c0.222-0.078,0.478-0.234,0.974-0.553c0.446-0.287,0.68-0.41,0.777-0.417c0.395-0.036,0.783,0.076,1.094,0.312l1.399,1.045
				l0.825,0.656c0.185,0.139,0.297,0.334,0.322,0.549s-0.037,0.431-0.176,0.598l-1.63,2.096c-0.014,0.018-0.035,0.027-0.056,0.025
				c-6.836-0.613-12.157-6.2-12.157-12.857c0-1.144,0.157-2.283,0.466-3.384L16.327,11.333z"/>
		</g>
	</mask>
	<g mask="url(#u92tmp83sb)">
		<path fill="#008BCF" d="M-9.463-9.963h60.185v60.185H-9.463V-9.963z"/>
	</g>
</g>
</svg>
