<svg width="36" height="34" viewBox="0 0 36 34" fill="none" xmlns="http://www.w3.org/2000/svg">
<path d="M18.54 0C27.745 0 35.207 7.462 35.207 16.667C35.207 25.871 27.745 33.333 18.54 33.333C14.46 33.333 10.723 31.868 7.826 29.434L0 30.7L3.507 23.874C2.46 21.693 1.873 19.249 1.873 16.668C1.873 7.462 9.335 0 18.54 0ZM16.765 8.76C16.536 7.732 15.535 7.09 14.519 7.309L11.478 7.734C11.138 7.801 10.888 8.027 10.793 8.329C10.431 9.57 10.248 10.847 10.248 12.13C10.248 19.335 15.991 25.365 23.348 26.024C23.721 26.062 24.094 25.902 24.328 25.599L25.946 23.518C26.256 23.143 26.402 22.643 26.343 22.146C26.284 21.648 26.024 21.196 25.623 20.896L24.796 20.238L23.388 19.187C22.875 18.797 22.229 18.611 21.582 18.669C21.239 18.695 20.956 18.844 20.292 19.271C19.845 19.558 19.626 19.681 19.524 19.706C17.506 18.553 15.976 16.706 15.219 14.508C15.34 14.426 15.533 14.314 15.819 14.158C16.537 13.767 16.769 13.616 16.957 13.323C17.307 12.783 17.433 12.125 17.306 11.491L16.967 9.794L16.765 8.76ZM14.701 8.333C15.194 8.229 15.644 8.517 15.745 8.973L15.945 9.996L16.285 11.696C16.358 12.063 16.285 12.444 16.082 12.758C16.035 12.832 15.822 12.97 15.322 13.243C14.616 13.626 14.376 13.783 14.186 14.076C14.102 14.206 14.08 14.366 14.126 14.513C14.953 17.203 16.815 19.454 19.301 20.773C19.519 20.888 19.764 20.833 19.917 20.677C20.138 20.598 20.395 20.443 20.89 20.124C21.337 19.837 21.57 19.714 21.668 19.707C22.064 19.671 22.451 19.783 22.761 20.019L24.161 21.063L24.987 21.72C25.171 21.859 25.283 22.054 25.309 22.269C25.334 22.484 25.271 22.699 25.133 22.866L23.503 24.962C23.489 24.98 23.468 24.989 23.447 24.987C16.612 24.374 11.29 18.787 11.29 12.13C11.29 10.986 11.447 9.847 11.757 8.746L14.701 8.333Z" fill="#008BCF"/>
<mask id="mask0_3_16" style="mask-type:luminance" maskUnits="userSpaceOnUse" x="0" y="0" width="36" height="34">
<path d="M18.54 0C27.745 0 35.207 7.462 35.207 16.667C35.207 25.871 27.745 33.333 18.54 33.333C14.46 33.333 10.723 31.868 7.826 29.434L0 30.7L3.507 23.874C2.46 21.693 1.873 19.249 1.873 16.668C1.873 7.462 9.335 0 18.54 0ZM16.765 8.76C16.536 7.732 15.535 7.09 14.519 7.309L11.478 7.734C11.138 7.801 10.888 8.027 10.793 8.329C10.431 9.57 10.248 10.847 10.248 12.13C10.248 19.335 15.991 25.365 23.348 26.024C23.721 26.062 24.094 25.902 24.328 25.599L25.946 23.518C26.256 23.143 26.402 22.643 26.343 22.146C26.284 21.648 26.024 21.196 25.623 20.896L24.796 20.238L23.388 19.187C22.875 18.797 22.229 18.611 21.582 18.669C21.239 18.695 20.956 18.844 20.292 19.271C19.845 19.558 19.626 19.681 19.524 19.706C17.506 18.553 15.976 16.706 15.219 14.508C15.34 14.426 15.533 14.314 15.819 14.158C16.537 13.767 16.769 13.616 16.957 13.323C17.307 12.783 17.433 12.125 17.306 11.491L16.967 9.794L16.765 8.76ZM14.701 8.333C15.194 8.229 15.644 8.517 15.745 8.973L15.945 9.996L16.285 11.696C16.358 12.063 16.285 12.444 16.082 12.758C16.035 12.832 15.822 12.97 15.322 13.243C14.616 13.626 14.376 13.783 14.186 14.076C14.102 14.206 14.08 14.366 14.126 14.513C14.953 17.203 16.815 19.454 19.301 20.773C19.519 20.888 19.764 20.833 19.917 20.677C20.138 20.598 20.395 20.443 20.89 20.124C21.337 19.837 21.57 19.714 21.668 19.707C22.064 19.671 22.451 19.783 22.761 20.019L24.161 21.063L24.987 21.72C25.171 21.859 25.283 22.054 25.309 22.269C25.334 22.484 25.271 22.699 25.133 22.866L23.503 24.962C23.489 24.98 23.468 24.989 23.447 24.987C16.612 24.374 11.29 18.787 11.29 12.13C11.29 10.986 11.447 9.847 11.757 8.746L14.701 8.333Z" fill="white"/>
</mask>
<g mask="url(#mask0_3_16)">
<path fill-rule="evenodd" clip-rule="evenodd" d="M-11.46 -11.667H48.54V48.333H-11.46V-11.667Z" fill="#81CE59"/>
</g>
</svg>
